<svg width="27" height="33" viewBox="0 0 27 33" fill="none" xmlns="http://www.w3.org/2000/svg">
<path d="M12.994 1.52449C13.614 1.81572 14.1781 2.21986 14.6595 2.71757L24.3378 12.7214C24.8243 13.2241 25.2135 13.8055 25.4908 14.4406M12.994 1.52449C12.2565 1.17853 11.4558 0.999697 10.6458 1H6.67592C5.17057 1 3.72688 1.6179 2.66244 2.71778C1.598 3.81765 1 5.30941 1 6.86487V26.1351C1 27.6906 1.598 29.1823 2.66244 30.2822C3.72688 31.3821 5.17057 32 6.67592 32H20.3241C21.8294 32 23.2731 31.3821 24.3376 30.2822C25.402 29.1823 26 27.6906 26 26.1351V16.8686C26 16.0224 25.8232 15.1963 25.4908 14.4406M12.994 1.52449V11.0876C12.994 11.9764 13.3357 12.8288 13.944 13.4573C14.5522 14.0858 15.3772 14.4389 16.2374 14.4389L25.4908 14.4406" stroke="#363636" stroke-width="2" stroke-linecap="round" stroke-linejoin="round"/>
</svg>
